# xmcd
#
# Track frame offsets: 
#        150
#        26906
#        47209
#        65396
#        82904
#        100575
#        115412
#        135041
#        162812
#        186653
#        210966
#
# Disc length: 3130 seconds
#
# Revision: 0
# Processed by: cddbd v1.5.2PL0 Copyright (c) Steve Scherf et al.
# Submitted via: ExactAudioCopy v0.90b4
#
DISCID=8a0c380b
DTITLE=Nancy Wilson - Turned to Blue
DYEAR=2006
DGENRE=Blues
TTITLE0=This Is All I Ask
TTITLE1=Take Love Easy
TTITLE2=Turend To Blue
TTITLE3=Knitting Class
TTITLE4=Be My Love
TTITLE5=Taking A Chance On Love
TTITLE6=Just Once
TTITLE7=These Golden Years
TTITLE8=I Don't Remember Ever Growing Up
TTITLE9=Old Folks
TTITLE10=I'll Be Seeing You
EXTD=
EXTT0=
EXTT1=
EXTT2=
EXTT3=
EXTT4=
EXTT5=
EXTT6=
EXTT7=
EXTT8=
EXTT9=
EXTT10=
PLAYORDER=
